<?xml version="1.0" encoding="utf-8"?>
<!-- Generator: Adobe Illustrator 28.0.0, SVG Export Plug-In . SVG Version: 6.00 Build 0)  -->
<svg version="1.1" id="圖層_1" xmlns="http://www.w3.org/2000/svg" xmlns:xlink="http://www.w3.org/1999/xlink" x="0px" y="0px"
	 viewBox="0 0 512 512" style="enable-background:new 0 0 512 512;" xml:space="preserve">
<style type="text/css">
	.st0{fill:#9E8880;}
</style>
<path class="st0" d="M128.6,192.3c0-20.8-0.1-40.7,0-60.5c0.1-19.3,3.1-38.1,11.2-55.8c19.3-42.2,52.3-66.7,97.9-73.4
	c40.4-5.9,76.6,5.1,106.4,33c27.2,25.5,39.1,58.1,39.3,95.1c0.1,20.2,0,40.3,0,61.6c10,0,19.5-0.2,29,0c26.2,0.5,47.2,11.3,59,35
	c4.8,9.6,7.3,21.3,7.4,32.1c0.7,61.4,0.5,122.9,0.3,184.3c-0.1,39.4-27.9,67.2-67.4,67.2c-103.7,0.1-207.4,0.1-311.1,0
	c-39.9,0-67.6-27.8-67.7-67.8c-0.1-60.9-0.1-121.8,0-182.7c0.1-40.4,27.7-68,68.1-68.2C109.7,192.2,118.5,192.3,128.6,192.3z
	 M255.2,239.7c-51.6,0-103.1,0-154.7,0c-14.8,0-20.2,5.5-20.2,20.2c0,61.1-0.1,122.2,0,183.4c0,14.8,5.5,20.2,20.3,20.2
	c103.4,0,206.8,0,310.1,0c15.8,0,21-5.3,21-21c0-60.3,0-120.7,0-181c0-16.8-5-21.8-21.9-21.8C358.3,239.7,306.7,239.7,255.2,239.7z
	 M335.5,192c0-23.9,0.6-47.2-0.3-70.5c-0.4-9-2.9-18.5-6.5-26.8c-14.8-33.7-50.5-49.9-83.9-45.3c-34.9,4.8-63.6,31.4-67,66.3
	c-2.1,21.8-1.3,44-1.7,66c-0.1,3.3,0,6.7,0,10.3C229.7,192,282.2,192,335.5,192z"/>
</svg>
